<?xml version="1.0" encoding="utf-8"?>
<!-- Generator: Adobe Illustrator 26.0.3, SVG Export Plug-In . SVG Version: 6.00 Build 0)  -->
<svg version="1.1" id="Camada_1" xmlns="http://www.w3.org/2000/svg" xmlns:xlink="http://www.w3.org/1999/xlink" x="0px" y="0px"
	 viewBox="0 0 608.8 190.5" style="enable-background:new 0 0 608.8 190.5;" xml:space="preserve">
<style type="text/css">
	.st0{fill:#FFFFFF;}
</style>
<g>
	<polygon class="st0" points="34.9,27.8 34.9,39.4 61.5,39.4 61.5,64.9 34.9,64.9 34.9,100.3 0,100.3 0,2.4 65.2,2.4 65.2,27.8 	"/>
	<path class="st0" d="M122.3,0C93.7,0,70.6,23.2,70.6,51.7c0,28.6,23.2,51.7,51.7,51.7c28.6,0,51.7-23.2,51.7-51.7S150.9,0,122.3,0z
		 M122.1,69.8c-9,0-16.3-8.3-16.3-18.4S113.1,33,122.1,33s16.3,8.2,16.3,18.4S131.1,69.8,122.1,69.8z"/>
	<path class="st0" d="M247.6,60.8c3.6-0.7,17.1-4.4,19-24.7C268.8,12.6,244.7,5,244.7,5s-7.1-2.3-16.7-2.3h-11.1V2.5h-33.3v98h33.3
		V68.6l16.4,31.7h38.8L247.6,60.8z M233.1,36v2.5c-0.6,8.7-11,8.1-11,8.1h-4.9V27.2h5l2.3,0.2C233.5,28.2,233.1,36,233.1,36z"/>
	<polygon class="st0" points="346.3,2.6 346.3,33.5 326.5,33.5 326.5,100.3 291.7,100.3 291.7,33.5 272.2,33.5 272.2,2.6 	"/>
	<polygon class="st0" points="463.7,20.2 458,41.7 498.4,41.7 493.8,60.9 452.9,60.9 447.3,82 491.4,82 486.6,100.3 415.8,100.3 
		442.1,2.2 447.5,2.3 447.5,2.2 512.6,2.2 507.7,20.2 	"/>
	<polygon class="st0" points="608.8,2.2 559.3,100.3 528.5,100.3 517.6,2.2 541.8,2.2 549.7,74.9 584.1,2.2 	"/>
	<polygon class="st0" points="410.6,82 405.6,100.3 338.9,100.3 364.9,2.6 391.2,2.6 369.5,82 	"/>
	<path class="st0" d="M314.4,138.5l8.5-19.2c0,0-9.2-6.4-21.1-6.4c0,0-19.4-1.6-30.3,12c0,0-7.5,7.6-5.8,20.1s15.8,14.9,15.8,14.9
		l10.5,2c0,0,5.1,1.3,2.1,5.8s-12.9,1.3-12.9,1.3s-8.4-2.9-11.2-6.9l-9.7,21.2c0,0,14.1,6.7,25.4,6.7c0,0,16.1,2,27.6-8
		c0,0,7.6-4.9,9.5-17c0,0,2.7-13.5-10.6-20.4c0,0-4.5-2.4-12.7-3.7c-8.2-1.3-6.5-4.5-6.5-4.5S295.1,127.2,314.4,138.5z"/>
	<path class="st0" d="M332.8,173.9c-1.1-2.9-6.4-18.1,2.3-31.6c9.6-14.9,23.5-16.7,23.5-16.7s23.8-6.7,38.3,13.2
		c0,0,16.6,26.3-10,47.1l0,0c1.9-0.9,9.2-4.7,13.4-9.5l0,0c0.3-0.4,0.6-0.8,0.9-1.1c17.9-22.9,3.1-45.6,2.8-45.8
		c-16.8-23-44.4-15.3-44.4-15.3s-16.3,2.3-27.2,19.4C322.7,148.7,329.4,168.4,332.8,173.9"/>
	<polygon class="st0" points="452.4,172.3 441.6,188.9 406,188.9 426.1,113.5 445.7,113.5 429.8,172.3 	"/>
	<path class="st0" d="M584.9,151.2c0,0,10.7-10.4,9.5-23.7c-1.3-13.3-17.4-13.9-17.4-13.9h-32.7l-18.9,70.2l-7.8-70.2h-21.1
		L447.6,189h20.8l8.2-13h27.5l1,13h38.8l7.6-28.9l10.8,28.9h24.1l-15.3-30.8C578.2,157.4,584.9,151.2,584.9,151.2z M486.1,160.8
		l14.9-23.6l1.9,23.6H486.1z M567,145.3c0,0-4,2.4-12.2,1.9l5.2-18.6h5.2c0,0,8.8,0.3,8.1,7.3C572.6,142.8,567,145.3,567,145.3z"/>
</g>
</svg>
